<svg xmlns="http://www.w3.org/2000/svg" viewBox="0 0 32 32" width="32" height="32">
  <rect width="32" height="32" rx="7" fill="#26351F"/>
  <g transform="translate(4 4)" fill="none" stroke="#C99A3A" stroke-width="1.6" stroke-linecap="round">
    <path d="M12 22V8"/>
    <path d="M12 4V8"/>
    <path d="M12 9 C 8.5 8, 7 10, 6.6 12"/>
    <path d="M12 9 C 15.5 8, 17 10, 17.4 12"/>
    <path d="M12 12.3 C 8.5 11.3, 7 13.3, 6.6 15.3"/>
    <path d="M12 12.3 C 15.5 11.3, 17 13.3, 17.4 15.3"/>
    <path d="M12 15.6 C 8.5 14.6, 7 16.6, 6.6 18.6"/>
    <path d="M12 15.6 C 15.5 14.6, 17 16.6, 17.4 18.6"/>
  </g>
</svg>
